# xmcd
#
# Track frame offsets:
#	150
#	7548
#	17871
#	30069
#	41142
#	55440
#	68688
#	81411
#	91509
#	99882
#	110505
#	122328
#	136626
#	147024
#	159297
#
# Disc length: 2303 seconds
#
# Revision: 0
# Processed by: cddbd v1.5.2PL0 Copyright (c) Steve Scherf et al.
# Submitted via: EasyCDDAExtractor 9.0.0.1
#
DISCID=a008fd0f
DTITLE=fifty guitars - Western Themes
DYEAR=2008
DGENRE=Easy Listening
TTITLE0=Magnificent Seven
TTITLE1=Mexicali Rose 
TTITLE2=The Hanging Tree
TTITLE3=Yellow Rose of Texas
TTITLE4=Domingo De Ronda From Blue
TTITLE5=Theme From A Fistful Of Dollars
TTITLE6=On The Old Spanish Trail
TTITLE7=The Commancheros
TTITLE8=Green Leaves Of Summer
TTITLE9=Theme From Viva Zapata
TTITLE10=Conquest
TTITLE11=Theme From Giant
TTITLE12=For A Few Dollars More
TTITLE13=The Good The Bad And The Ugly
TTITLE14=South Of The Border
EXTD=
EXTT0=
EXTT1=
EXTT2=
EXTT3=
EXTT4=
EXTT5=
EXTT6=
EXTT7=
EXTT8=
EXTT9=
EXTT10=
EXTT11=
EXTT12=
EXTT13=
EXTT14=
PLAYORDER=
